<svg xmlns="http://www.w3.org/2000/svg" viewBox="0 0 790 260" font-family="'SF Mono', 'Fira Code', 'Cascadia Code', Menlo, monospace">
<rect width="790" height="260" fill="#1a1a2e" rx="8"/>
<text x="395.0" y="28" text-anchor="middle" fill="#e0e0e0" font-size="15" font-weight="600">AT Protocol trust chain — compute</text>
<text x="395.0" y="44" text-anchor="middle" fill="#666" font-size="11">192,161 records</text>
<line x1="160.0" y1="53" x2="160.0" y2="211" stroke="#262640" stroke-width="1"/>
<line x1="264.0" y1="53" x2="264.0" y2="211" stroke="#262640" stroke-width="1"/>
<line x1="368.0" y1="53" x2="368.0" y2="211" stroke="#262640" stroke-width="1"/>
<line x1="472.0" y1="53" x2="472.0" y2="211" stroke="#262640" stroke-width="1"/>
<line x1="576.0" y1="53" x2="576.0" y2="211" stroke="#262640" stroke-width="1"/>
<line x1="680.0" y1="53" x2="680.0" y2="211" stroke="#262640" stroke-width="1"/>
<!-- zig: CAR 82.8ms + sig 0.6ms + MST walk+verify 39.3ms = 122.7ms -->
<text x="146" y="79.0" text-anchor="end" fill="#c0c0c0" font-size="13">zig (zat)</text>
<rect x="160.0" y="55" width="99.2" height="38" fill="#e8944a" rx="3"/>
<text x="209.6" y="78.0" text-anchor="middle" fill="white" font-size="10" font-weight="500">CAR parse</text>
<rect x="259.2" y="55" width="1.0" height="38" fill="#ed7d31" rx="3"/>
<rect x="260.2" y="55" width="47.1" height="38" fill="#c55a11" rx="3"/>
<text x="283.7" y="78.0" text-anchor="middle" fill="white" font-size="9" font-weight="500">MST</text>
<text x="317.3" y="79.0" fill="#a0a0a0" font-size="12" font-weight="500">123ms</text>
<!-- rust: CAR 301.0ms + sig 0.2ms + MST walk 120.9ms = 422.1ms -->
<text x="146" y="137.0" text-anchor="end" fill="#c0c0c0" font-size="13">rust (rsky stack)</text>
<rect x="160.0" y="113" width="360.5" height="38" fill="#e8944a" rx="3"/>
<text x="340.3" y="136.0" text-anchor="middle" fill="white" font-size="10" font-weight="500">CAR parse</text>
<rect x="520.5" y="113" width="1.0" height="38" fill="#ed7d31" rx="3"/>
<rect x="521.5" y="113" width="144.8" height="38" fill="#c55a11" rx="3"/>
<text x="593.9" y="136.0" text-anchor="middle" fill="white" font-size="10" font-weight="500">MST walk</text>
<text x="676.3" y="137.0" fill="#a0a0a0" font-size="12" font-weight="500">422ms</text>
<!-- go: CAR 424.7ms + sig 0.2ms + MST walk 9.3ms = 434.2ms -->
<text x="146" y="195.0" text-anchor="end" fill="#c0c0c0" font-size="13">go (indigo)</text>
<rect x="160.0" y="171" width="508.8" height="38" fill="#e8944a" rx="3"/>
<text x="414.4" y="194.0" text-anchor="middle" fill="white" font-size="10" font-weight="500">CAR parse</text>
<rect x="668.8" y="171" width="1.0" height="38" fill="#ed7d31" rx="3"/>
<rect x="669.8" y="171" width="11.1" height="38" fill="#c55a11" rx="3"/>
<text x="691.0" y="195.0" fill="#a0a0a0" font-size="12" font-weight="500">434ms</text>
<!-- axis labels -->
<text x="160.0" y="227" text-anchor="middle" fill="#606060" font-size="10">0</text>
<text x="264.0" y="227" text-anchor="middle" fill="#606060" font-size="10">87ms</text>
<text x="368.0" y="227" text-anchor="middle" fill="#606060" font-size="10">174ms</text>
<text x="472.0" y="227" text-anchor="middle" fill="#606060" font-size="10">260ms</text>
<text x="576.0" y="227" text-anchor="middle" fill="#606060" font-size="10">347ms</text>
<text x="680.0" y="227" text-anchor="middle" fill="#606060" font-size="10">434ms</text>
<!-- legend -->
<rect x="195" y="241" width="10" height="10" fill="#e8944a" rx="2"/>
<text x="209" y="249" fill="#808080" font-size="10">CAR parse</text>
<rect x="287" y="241" width="10" height="10" fill="#ed7d31" rx="2"/>
<text x="301" y="249" fill="#808080" font-size="10">sig verify</text>
<rect x="375" y="241" width="10" height="10" fill="#c55a11" rx="2"/>
<text x="389" y="249" fill="#808080" font-size="10">MST walk+verify</text>
</svg>
