<svg xmlns="http://www.w3.org/2000/svg" viewBox="0 0 790 267" font-family="'SF Mono', 'Fira Code', 'Cascadia Code', Menlo, monospace">
<rect width="790" height="267" fill="#1a1a2e" rx="8"/>
<text x="395.0" y="28" text-anchor="middle" fill="#e0e0e0" font-size="15" font-weight="600">AT Protocol trust chain — total (network + compute)</text>
<text x="395.0" y="44" text-anchor="middle" fill="#666" font-size="11">192,144 records</text>
<line x1="160.0" y1="53" x2="160.0" y2="211" stroke="#262640" stroke-width="1"/>
<line x1="264.0" y1="53" x2="264.0" y2="211" stroke="#262640" stroke-width="1"/>
<line x1="368.0" y1="53" x2="368.0" y2="211" stroke="#262640" stroke-width="1"/>
<line x1="472.0" y1="53" x2="472.0" y2="211" stroke="#262640" stroke-width="1"/>
<line x1="576.0" y1="53" x2="576.0" y2="211" stroke="#262640" stroke-width="1"/>
<line x1="680.0" y1="53" x2="680.0" y2="211" stroke="#262640" stroke-width="1"/>
<text x="146" y="79.0" text-anchor="end" fill="#c0c0c0" font-size="13">zig (zat)</text>
<rect x="160.0" y="55" width="18.0" height="38" fill="#6ea8d9" rx="3"/>
<rect x="178.0" y="55" width="8.4" height="38" fill="#5b9bd5" rx="3"/>
<rect x="186.4" y="55" width="214.2" height="38" fill="#4472c4" rx="3"/>
<text x="293.5" y="78.0" text-anchor="middle" fill="white" font-size="10" font-weight="500">fetch</text>
<rect x="400.6" y="55" width="2.0" height="38" fill="#e8944a" rx="3"/>
<rect x="402.6" y="55" width="1.0" height="38" fill="#ed7d31" rx="3"/>
<rect x="403.6" y="55" width="1.1" height="38" fill="#c55a11" rx="3"/>
<rect x="404.7" y="55" width="4.2" height="38" fill="#a04000" rx="3"/>
<text x="419.0" y="79.0" fill="#a0a0a0" font-size="12" font-weight="500">10.1s</text>
<text x="146" y="137.0" text-anchor="end" fill="#c0c0c0" font-size="13">go (indigo)</text>
<rect x="160.0" y="113" width="1.3" height="38" fill="#6ea8d9" rx="3"/>
<rect x="161.3" y="113" width="3.6" height="38" fill="#5b9bd5" rx="3"/>
<rect x="164.9" y="113" width="505.0" height="38" fill="#4472c4" rx="3"/>
<text x="417.4" y="136.0" text-anchor="middle" fill="white" font-size="10" font-weight="500">fetch</text>
<rect x="670.0" y="113" width="9.9" height="38" fill="#e8944a" rx="3"/>
<rect x="679.8" y="113" width="1.0" height="38" fill="#ed7d31" rx="3"/>
<rect x="680.8" y="113" width="1.0" height="38" fill="#c55a11" rx="3"/>
<text x="691.8" y="137.0" fill="#a0a0a0" font-size="12" font-weight="500">21.2s</text>
<text x="146" y="195.0" text-anchor="end" fill="#c0c0c0" font-size="13">rust (RustCrypto)</text>
<rect x="160.0" y="171" width="16.3" height="38" fill="#6ea8d9" rx="3"/>
<rect x="176.3" y="171" width="5.0" height="38" fill="#5b9bd5" rx="3"/>
<rect x="181.2" y="171" width="191.0" height="38" fill="#4472c4" rx="3"/>
<text x="276.7" y="194.0" text-anchor="middle" fill="white" font-size="10" font-weight="500">fetch</text>
<rect x="372.2" y="171" width="7.4" height="38" fill="#e8944a" rx="3"/>
<rect x="379.6" y="171" width="1.0" height="38" fill="#ed7d31" rx="3"/>
<rect x="380.6" y="171" width="3.0" height="38" fill="#c55a11" rx="3"/>
<text x="393.6" y="195.0" fill="#a0a0a0" font-size="12" font-weight="500">9.1s</text>
<text x="160.0" y="227" text-anchor="middle" fill="#606060" font-size="10">0</text>
<text x="264.0" y="227" text-anchor="middle" fill="#606060" font-size="10">4.2s</text>
<text x="368.0" y="227" text-anchor="middle" fill="#606060" font-size="10">8.5s</text>
<text x="472.0" y="227" text-anchor="middle" fill="#606060" font-size="10">12.7s</text>
<text x="576.0" y="227" text-anchor="middle" fill="#606060" font-size="10">17.0s</text>
<text x="680.0" y="227" text-anchor="middle" fill="#606060" font-size="10">21.2s</text>
<rect x="160" y="241" width="10" height="10" fill="#6ea8d9" rx="2"/>
<text x="174" y="249" fill="#808080" font-size="10">handle</text>
<rect x="223" y="241" width="10" height="10" fill="#5b9bd5" rx="2"/>
<text x="237" y="249" fill="#808080" font-size="10">DID doc</text>
<rect x="293" y="241" width="10" height="10" fill="#4472c4" rx="2"/>
<text x="307" y="249" fill="#808080" font-size="10">fetch</text>
<rect x="350" y="241" width="10" height="10" fill="#e8944a" rx="2"/>
<text x="364" y="249" fill="#808080" font-size="10">CAR parse</text>
<rect x="431" y="241" width="10" height="10" fill="#ed7d31" rx="2"/>
<text x="445" y="249" fill="#808080" font-size="10">sig verify</text>
<rect x="519" y="241" width="10" height="10" fill="#c55a11" rx="2"/>
<text x="533" y="249" fill="#808080" font-size="10">MST walk</text>
<rect x="595" y="241" width="10" height="10" fill="#a04000" rx="2"/>
<text x="609" y="249" fill="#808080" font-size="10">MST rebuild</text>
</svg>